<svg width="428" height="436" viewBox="0 0 428 436" fill="none" xmlns="http://www.w3.org/2000/svg">
<g filter="url(#filter0_d_53_293)">
<mask id="mask0_53_293" style="mask-type:alpha" maskUnits="userSpaceOnUse" x="0" y="0" width="428" height="428">
<line x1="428" y1="411.716" x2="-6.10352e-05" y2="411.716" stroke="white"/>
<line x1="428" y1="389.839" x2="-6.10352e-05" y2="389.839" stroke="white"/>
<line x1="428" y1="367.962" x2="-6.10352e-05" y2="367.962" stroke="white"/>
<line x1="428" y1="346.085" x2="-6.10352e-05" y2="346.085" stroke="white"/>
<line x1="428" y1="324.208" x2="-6.10352e-05" y2="324.208" stroke="white"/>
<line x1="428" y1="302.332" x2="-6.10352e-05" y2="302.332" stroke="white"/>
<line x1="428" y1="280.455" x2="-6.10352e-05" y2="280.455" stroke="white"/>
<line x1="428" y1="258.578" x2="-6.10352e-05" y2="258.578" stroke="white"/>
<line x1="428" y1="236.701" x2="-6.10352e-05" y2="236.701" stroke="white"/>
<line x1="428" y1="214.824" x2="-6.10352e-05" y2="214.824" stroke="white"/>
<line x1="428" y1="17.2844" x2="-6.10352e-05" y2="17.2844" stroke="white"/>
<line x1="428" y1="39.8099" x2="-6.10352e-05" y2="39.8099" stroke="white"/>
<line x1="428" y1="61.6867" x2="-6.10352e-05" y2="61.6867" stroke="white"/>
<line x1="428" y1="83.5635" x2="-6.10352e-05" y2="83.5635" stroke="white"/>
<line x1="428" y1="105.44" x2="-6.10352e-05" y2="105.44" stroke="white"/>
<line x1="428" y1="127.317" x2="-6.10352e-05" y2="127.317" stroke="white"/>
<line x1="428" y1="149.194" x2="-6.10352e-05" y2="149.194" stroke="white"/>
<line x1="428" y1="171.071" x2="-6.10352e-05" y2="171.071" stroke="white"/>
<line x1="428" y1="192.948" x2="-6.10352e-05" y2="192.948" stroke="white"/>
<line x1="411.716" x2="411.716" y2="428" stroke="white"/>
<line x1="389.839" x2="389.839" y2="428" stroke="white"/>
<line x1="367.962" x2="367.962" y2="428" stroke="white"/>
<line x1="346.085" x2="346.085" y2="428" stroke="white"/>
<line x1="324.208" x2="324.208" y2="428" stroke="white"/>
<line x1="302.332" x2="302.332" y2="428" stroke="white"/>
<line x1="280.455" x2="280.455" y2="428" stroke="white"/>
<line x1="258.578" x2="258.578" y2="428" stroke="white"/>
<line x1="236.701" x2="236.701" y2="428" stroke="white"/>
<line x1="214.824" x2="214.824" y2="428" stroke="white"/>
<line x1="17.2843" x2="17.2843" y2="428" stroke="white"/>
<line x1="39.8099" x2="39.8099" y2="428" stroke="white"/>
<line x1="61.6868" x2="61.6868" y2="428" stroke="white"/>
<line x1="83.5635" x2="83.5635" y2="428" stroke="white"/>
<line x1="105.44" x2="105.44" y2="428" stroke="white"/>
<line x1="127.317" x2="127.317" y2="428" stroke="white"/>
<line x1="149.194" x2="149.194" y2="428" stroke="white"/>
<line x1="171.071" x2="171.071" y2="428" stroke="white"/>
<line x1="192.948" x2="192.948" y2="428" stroke="white"/>
</mask>
<g mask="url(#mask0_53_293)">
<ellipse cx="214.666" cy="213.676" rx="341.825" ry="341.825" fill="url(#paint0_radial_53_293)"/>
</g>
</g>
<path d="M138.898 200.465V205.855C136.268 203.655 133.547 202.555 130.734 202.555C127.635 202.555 125.025 203.668 122.902 205.895C120.767 208.108 119.699 210.816 119.699 214.02C119.699 217.184 120.767 219.853 122.902 222.027C125.038 224.202 127.655 225.289 130.754 225.289C132.355 225.289 133.716 225.029 134.836 224.508C135.461 224.247 136.105 223.896 136.77 223.453C137.447 223.01 138.156 222.477 138.898 221.852V227.34C136.294 228.811 133.56 229.547 130.695 229.547C126.385 229.547 122.707 228.043 119.66 225.035C116.626 222.001 115.109 218.342 115.109 214.059C115.109 210.217 116.379 206.793 118.918 203.785C122.043 200.1 126.086 198.258 131.047 198.258C133.755 198.258 136.372 198.993 138.898 200.465ZM142.922 219.352C142.922 216.604 143.905 214.267 145.871 212.34C147.837 210.413 150.233 209.449 153.059 209.449C155.897 209.449 158.306 210.419 160.285 212.359C162.238 214.299 163.215 216.682 163.215 219.508C163.215 222.359 162.232 224.749 160.266 226.676C158.286 228.59 155.858 229.547 152.98 229.547C150.129 229.547 147.74 228.57 145.812 226.617C143.885 224.69 142.922 222.268 142.922 219.352ZM147.414 219.43C147.414 221.331 147.922 222.835 148.938 223.941C149.979 225.061 151.353 225.621 153.059 225.621C154.777 225.621 156.151 225.068 157.18 223.961C158.208 222.854 158.723 221.376 158.723 219.527C158.723 217.678 158.208 216.201 157.18 215.094C156.138 213.974 154.764 213.414 153.059 213.414C151.379 213.414 150.018 213.974 148.977 215.094C147.935 216.214 147.414 217.659 147.414 219.43ZM178.938 213.219L175.305 215.152C174.732 213.98 174.022 213.395 173.176 213.395C172.772 213.395 172.427 213.531 172.141 213.805C171.854 214.065 171.711 214.404 171.711 214.82C171.711 215.549 172.557 216.272 174.25 216.988C176.581 217.991 178.15 218.915 178.957 219.762C179.764 220.608 180.168 221.747 180.168 223.18C180.168 225.016 179.491 226.552 178.137 227.789C176.822 228.961 175.233 229.547 173.371 229.547C170.181 229.547 167.922 227.991 166.594 224.879L170.344 223.141C170.865 224.052 171.262 224.632 171.535 224.879C172.069 225.374 172.707 225.621 173.449 225.621C174.934 225.621 175.676 224.944 175.676 223.59C175.676 222.809 175.103 222.079 173.957 221.402C173.514 221.181 173.072 220.966 172.629 220.758C172.186 220.549 171.737 220.335 171.281 220.113C170.005 219.488 169.107 218.863 168.586 218.238C167.922 217.444 167.59 216.422 167.59 215.172C167.59 213.518 168.156 212.151 169.289 211.07C170.448 209.99 171.854 209.449 173.508 209.449C175.943 209.449 177.753 210.706 178.938 213.219ZM184.133 209.977H188.527V211.734C189.374 210.849 190.096 210.25 190.695 209.938C191.333 209.612 192.134 209.449 193.098 209.449C195.246 209.449 196.945 210.387 198.195 212.262C199.576 210.387 201.444 209.449 203.801 209.449C208.085 209.449 210.227 212.047 210.227 217.242V229H205.812V218.434C205.812 216.611 205.591 215.322 205.148 214.566C204.693 213.798 203.944 213.414 202.902 213.414C201.691 213.414 200.806 213.87 200.246 214.781C199.699 215.693 199.426 217.158 199.426 219.176V229H195.012V218.492C195.012 215.107 194.035 213.414 192.082 213.414C190.845 213.414 189.94 213.876 189.367 214.801C188.807 215.725 188.527 217.184 188.527 219.176V229H184.133V209.977ZM214.875 219.352C214.875 216.604 215.858 214.267 217.824 212.34C219.79 210.413 222.186 209.449 225.012 209.449C227.85 209.449 230.259 210.419 232.238 212.359C234.191 214.299 235.168 216.682 235.168 219.508C235.168 222.359 234.185 224.749 232.219 226.676C230.24 228.59 227.811 229.547 224.934 229.547C222.082 229.547 219.693 228.57 217.766 226.617C215.839 224.69 214.875 222.268 214.875 219.352ZM219.367 219.43C219.367 221.331 219.875 222.835 220.891 223.941C221.932 225.061 223.306 225.621 225.012 225.621C226.73 225.621 228.104 225.068 229.133 223.961C230.161 222.854 230.676 221.376 230.676 219.527C230.676 217.678 230.161 216.201 229.133 215.094C228.091 213.974 226.717 213.414 225.012 213.414C223.332 213.414 221.971 213.974 220.93 215.094C219.888 216.214 219.367 217.659 219.367 219.43Z" fill="white"/>
<path d="M240.676 229V198.844H247.004C250.038 198.844 252.434 199.143 254.191 199.742C256.079 200.328 257.792 201.324 259.328 202.73C262.44 205.569 263.996 209.299 263.996 213.922C263.996 218.557 262.375 222.307 259.133 225.172C257.505 226.604 255.799 227.6 254.016 228.16C252.349 228.72 249.986 229 246.926 229H240.676ZM245.227 224.723H247.277C249.322 224.723 251.021 224.508 252.375 224.078C253.729 223.622 254.953 222.9 256.047 221.91C258.286 219.866 259.406 217.203 259.406 213.922C259.406 210.615 258.299 207.932 256.086 205.875C254.094 204.039 251.158 203.121 247.277 203.121H245.227V224.723ZM286.223 220.523H272.59C272.707 222.086 273.215 223.329 274.113 224.254C275.012 225.165 276.164 225.621 277.57 225.621C278.664 225.621 279.569 225.361 280.285 224.84C280.988 224.319 281.789 223.355 282.688 221.949L286.398 224.02C285.826 224.996 285.22 225.836 284.582 226.539C283.944 227.229 283.26 227.802 282.531 228.258C281.802 228.701 281.014 229.026 280.168 229.234C279.322 229.443 278.404 229.547 277.414 229.547C274.576 229.547 272.297 228.635 270.578 226.812C268.859 224.977 268 222.542 268 219.508C268 216.5 268.833 214.065 270.5 212.203C272.18 210.367 274.406 209.449 277.18 209.449C279.979 209.449 282.193 210.341 283.82 212.125C285.435 213.896 286.242 216.35 286.242 219.488L286.223 220.523ZM281.711 216.93C281.099 214.586 279.621 213.414 277.277 213.414C276.743 213.414 276.242 213.499 275.773 213.668C275.305 213.824 274.875 214.059 274.484 214.371C274.107 214.671 273.781 215.035 273.508 215.465C273.234 215.895 273.026 216.383 272.883 216.93H281.711ZM296.164 218.707L289.328 209.977H294.562L298.801 215.523L303.117 209.977H308.508L301.477 218.707L309.621 229H304.387L298.801 221.891L293.078 229H287.707L296.164 218.707Z" fill="#9149C3"/>
<defs>
<filter id="filter0_d_53_293" x="-4" y="0" width="436" height="436" filterUnits="userSpaceOnUse" color-interpolation-filters="sRGB">
<feFlood flood-opacity="0" result="BackgroundImageFix"/>
<feColorMatrix in="SourceAlpha" type="matrix" values="0 0 0 0 0 0 0 0 0 0 0 0 0 0 0 0 0 0 127 0" result="hardAlpha"/>
<feOffset dy="4"/>
<feGaussianBlur stdDeviation="2"/>
<feComposite in2="hardAlpha" operator="out"/>
<feColorMatrix type="matrix" values="0 0 0 0 0 0 0 0 0 0 0 0 0 0 0 0 0 0 0.25 0"/>
<feBlend mode="normal" in2="BackgroundImageFix" result="effect1_dropShadow_53_293"/>
<feBlend mode="normal" in="SourceGraphic" in2="effect1_dropShadow_53_293" result="shape"/>
</filter>
<radialGradient id="paint0_radial_53_293" cx="0" cy="0" r="1" gradientUnits="userSpaceOnUse" gradientTransform="translate(214.666 213.676) rotate(90) scale(341.825 341.825)">
<stop stop-color="#EC38BC" stop-opacity="0.47"/>
<stop offset="0.345" stop-color="#7303C0" stop-opacity="0.342"/>
<stop offset="0.675" stop-color="#03001E" stop-opacity="0.1584"/>
<stop offset="1" stop-color="#737373" stop-opacity="0"/>
</radialGradient>
</defs>
</svg>
